<?xml version="1.0" encoding="utf-8"?>
<!-- Generator: Adobe Illustrator 25.0.0, SVG Export Plug-In . SVG Version: 6.00 Build 0)  -->
<svg version="1.1" id="Слой_1" xmlns="http://www.w3.org/2000/svg" xmlns:xlink="http://www.w3.org/1999/xlink" x="0px" y="0px"
	 viewBox="0 0 12.2 14.7" style="enable-background:new 0 0 12.2 14.7;" xml:space="preserve">
<style type="text/css">
	.st0{fill:none;stroke:#000000;stroke-width:2;stroke-linecap:round;stroke-linejoin:round;}
</style>
<g id="common-file-double-2" transform="translate(-2 0.25)">
	<path id="Контур_326" class="st0" d="M10.6,12.6c0,0.5-0.4,0.8-0.8,0.8l0,0H3.8c-0.5,0-0.8-0.4-0.8-0.8V5
		c0-0.5,0.4-0.8,0.8-0.8h0h4.3c0.2,0,0.4,0.1,0.6,0.2L10.4,6c0.2,0.2,0.2,0.4,0.2,0.6V12.6z"/>
	<path id="Контур_327" class="st0" d="M5.5,4.1V1.6c0-0.5,0.4-0.8,0.8-0.8c0,0,0,0,0,0h4.3c0.2,0,0.4,0.1,0.6,0.2l1.6,1.6
		c0.2,0.2,0.2,0.4,0.2,0.6v6c0,0.5-0.4,0.8-0.8,0.8l0,0h-1.7"/>
</g>
</svg>
